<?xml version="1.0" standalone="no"?>
<!DOCTYPE svg PUBLIC "-//W3C//DTD SVG 20010904//EN"
 "http://www.w3.org/TR/2001/REC-SVG-20010904/DTD/svg10.dtd">
<svg version="1.0" xmlns="http://www.w3.org/2000/svg"
 width="300.000000pt" height="300.000000pt" viewBox="0 0 300.000000 300.000000"
 preserveAspectRatio="xMidYMid meet">
<metadata>
Created by potrace 1.16, written by Peter Selinger 2001-2019
</metadata>
<g transform="translate(0.000000,300.000000) scale(0.100000,-0.100000)"
fill="#000000" stroke="none">
<path d="M1364 2265 c-97 -49 -141 -90 -178 -164 -19 -39 -44 -79 -55 -90 -12
-12 -21 -29 -21 -38 0 -15 2 -14 15 3 9 12 14 14 15 6 0 -22 20 -2 21 21 0 19
1 20 11 5 11 -15 14 -15 36 0 l25 16 -8 -44 c-4 -25 -7 -57 -8 -72 0 -33 -1
-33 -22 -12 -15 15 -16 14 -10 -12 l6 -29 -22 29 c-21 26 -23 27 -30 10 -7
-17 -8 -17 -8 -1 -1 24 -21 22 -21 -2 0 -11 5 -23 10 -26 6 -3 10 -15 10 -26
0 -10 9 -27 19 -36 18 -15 18 -19 5 -37 -21 -31 -17 -38 11 -20 14 9 25 25 25
35 0 16 26 39 45 39 3 0 3 -15 0 -34 -7 -37 11 -82 47 -115 24 -23 46 -18 23
5 -8 9 -15 22 -15 30 0 8 -7 14 -15 14 -19 0 -30 43 -16 67 5 11 7 44 4 75 -6
56 -5 56 27 73 46 24 117 15 145 -17 17 -20 28 -24 58 -20 29 3 37 1 37 -11 0
-12 -9 -15 -40 -12 -35 3 -41 1 -46 -20 -8 -34 -48 -67 -91 -75 -31 -6 -33 -8
-11 -9 47 -2 107 30 110 59 3 21 9 25 41 28 21 2 44 -1 51 -7 9 -8 11 -2 8 22
-5 48 25 71 93 71 77 0 99 -21 91 -91 -4 -31 -2 -54 4 -58 5 -3 10 -20 10 -37
0 -21 -6 -31 -20 -35 -11 -3 -20 -14 -20 -24 0 -11 -7 -22 -15 -25 -15 -6 -11
-24 5 -24 4 0 23 19 40 43 27 36 31 48 27 85 -4 35 -2 42 11 40 9 -2 23 -17
32 -33 8 -16 21 -34 28 -40 20 -16 5 -61 -33 -94 -34 -30 -128 -66 -203 -77
-35 -5 -41 -4 -37 8 7 19 -47 30 -101 21 -34 -6 -35 -7 -19 -20 37 -26 -33
-19 -138 14 -82 26 -147 71 -147 104 0 10 -3 19 -6 19 -6 0 -44 -33 -102 -88
l-34 -32 27 -38 c74 -99 153 -161 267 -206 58 -23 81 -26 180 -26 96 0 124 4
189 26 97 34 191 102 253 185 l48 64 -61 55 c-37 33 -61 63 -61 76 0 11 -5 25
-12 32 -8 8 -6 24 10 63 12 28 22 57 22 64 0 16 -32 13 -38 -3 -6 -18 -22 -14
-22 5 0 15 -1 15 -18 0 -26 -24 -27 -22 -28 26 -1 23 -5 56 -9 72 -7 26 -6 28
7 18 8 -7 18 -10 21 -6 4 3 7 0 7 -8 1 -10 5 -8 16 6 15 20 15 20 20 -2 3 -12
14 -23 25 -26 25 -7 24 8 -1 33 -11 11 -35 51 -54 89 -38 75 -77 112 -171 161
-50 26 -67 30 -139 30 -68 0 -91 -4 -132 -25z m241 -52 c84 -34 96 -49 97
-113 0 -70 -14 -84 -73 -71 -57 13 -201 13 -258 0 -53 -12 -61 -6 -67 53 -7
65 7 91 63 118 112 54 135 55 238 13z"/>
<path d="M443 1063 c-21 -8 -18 -149 3 -157 29 -11 79 -6 102 10 26 18 29 59
5 73 -10 6 -13 11 -7 11 22 0 24 30 4 50 -19 19 -76 26 -107 13z"/>
<path d="M650 1050 c-21 -39 -50 -132 -44 -141 10 -16 36 -9 41 11 4 14 14 20
33 20 20 0 31 -6 35 -20 8 -25 45 -27 44 -2 0 9 -10 46 -22 82 -19 57 -26 65
-49 68 -19 2 -30 -3 -38 -18z"/>
<path d="M972 988 c3 -70 6 -83 21 -86 14 -3 17 4 17 32 0 33 2 36 29 36 26 0
30 -4 33 -32 2 -25 8 -33 23 -33 18 0 20 7 20 80 0 75 -1 80 -22 83 -20 3 -23
-1 -23 -27 0 -28 -3 -31 -30 -31 -27 0 -30 3 -30 30 0 24 -4 30 -20 30 -20 0
-21 -5 -18 -82z"/>
<path d="M1586 1049 c-21 -16 -26 -29 -26 -64 0 -35 5 -48 26 -64 57 -45 144
-6 144 64 0 70 -87 109 -144 64z"/>
<path d="M1942 988 c3 -70 6 -83 21 -86 14 -3 17 4 17 32 0 33 2 36 29 36 26
0 30 -4 33 -32 2 -25 8 -33 23 -33 18 0 20 7 20 80 0 75 -1 80 -22 83 -20 3
-23 -1 -23 -27 0 -28 -3 -31 -30 -31 -27 0 -30 3 -30 30 0 24 -4 30 -20 30
-20 0 -21 -5 -18 -82z"/>
<path d="M2247 1064 c-4 -4 -7 -43 -7 -86 0 -71 2 -78 20 -78 17 0 20 7 20 53
l0 52 28 -50 c18 -34 34 -51 50 -53 21 -3 22 -1 22 82 0 79 -2 86 -20 86 -17
0 -20 -7 -20 -52 l0 -53 -28 50 c-25 47 -49 65 -65 49z"/>
<path d="M2475 1058 c-43 -23 -58 -74 -35 -117 14 -27 64 -44 105 -37 36 7 36
7 33 54 -3 45 -4 47 -33 47 -20 0 -31 -5 -33 -17 -2 -11 3 -18 12 -18 9 0 16
-7 16 -15 0 -9 -9 -15 -25 -15 -32 0 -51 34 -36 66 9 20 18 24 56 24 47 0 58
12 26 30 -25 13 -61 12 -86 -2z"/>
</g>
</svg>
